<svg xmlns="http://www.w3.org/2000/svg" xmlns:xlink="http://www.w3.org/1999/xlink" width="166" height="36" viewBox="0 0 166 36">
    <defs>
        <path id="a" d="M0 33.54h165.79V.357H0z"/>
    </defs>
    <g fill="none" fill-rule="evenodd">
        <path fill="#00FFDB" d="M58.577.425L25.385 33.607h17.21L75.789.425z"/>
        <g transform="translate(0 .067)">
            <mask id="b" fill="#fff">
                <use xlink:href="#a"/>
            </mask>
            <path fill="#FFF" d="M11.586 13.246c1.817 0 3.229.865 4.41 2.364l4.295-3.833c-1.988-2.594-5.101-4.036-9.05-4.036C4.754 7.741 0 12.094 0 18.291c0 6.197 4.755 10.55 11.24 10.55 3.95 0 7.063-1.442 9.051-4.036l-4.294-3.834c-1.182 1.499-2.594 2.364-4.41 2.364-2.825 0-4.727-1.96-4.727-5.044 0-3.084 1.902-5.045 4.726-5.045M31.927 7.352c-6.115 0-11.073 4.957-11.073 11.073 0 3.973 2.101 7.442 5.245 9.394l5.488-5.486c-2.015-.175-3.602-1.847-3.602-3.908a3.942 3.942 0 0 1 3.942-3.943c2.061 0 3.734 1.588 3.908 3.604l5.488-5.486C39.37 9.455 35.9 7.352 31.927 7.352M53.804 23.076H50.95v-9.57h2.854c2.853 0 4.813 1.7 4.813 4.785 0 3.084-1.96 4.785-4.813 4.785m.288-14.873h-9.944v20.176h9.944c6.744 0 11.386-3.834 11.386-10.088 0-6.255-4.642-10.088-11.386-10.088M74.64 20.596h8.532v-4.9H74.64v-2.363h9.713v-5.13h-16.4v20.176h16.775v-5.13H74.64zM102.798 8.203h-6.803v20.176h15.91v-5.275h-9.107zM113.778 28.379h6.802V8.203h-6.802zM133.241 22.257a4.178 4.178 0 1 1 .001-8.356 4.178 4.178 0 0 1 0 8.356m0-14.905c-5.925 0-10.728 4.803-10.728 10.727 0 5.925 4.803 10.728 10.727 10.728 5.925 0 10.728-4.803 10.728-10.728 0-5.924-4.803-10.727-10.728-10.727M159.161 8.203v9.166l-7.667-9.166h-5.591v20.176h6.63v-9.166l7.666 9.166h5.592V8.203z" mask="url(#b)"/>
        </g>
    </g>
</svg>
